<?xml version="1.0" standalone="no"?>
<!DOCTYPE svg PUBLIC "-//W3C//DTD SVG 20010904//EN"
 "http://www.w3.org/TR/2001/REC-SVG-20010904/DTD/svg10.dtd">
<svg version="1.0" xmlns="http://www.w3.org/2000/svg"
 width="1241.000000pt" height="265.000000pt" viewBox="0 0 1241.000000 265.000000"
 preserveAspectRatio="xMidYMid meet">

<g transform="translate(0.000000,265.000000) scale(0.100000,-0.100000)"
fill="#000000" stroke="none">
<path d="M10723 1843 c-12 -2 -34 -18 -48 -34 l-25 -31 0 -389 0 -390 -492 3
-493 3 -48 28 c-156 92 -152 325 6 410 41 21 53 22 442 27 429 5 431 6 454 57
14 30 14 89 1 114 -10 18 -25 19 -413 19 -429 0 -459 -3 -563 -51 -78 -37
-156 -118 -194 -201 -32 -68 -34 -80 -34 -175 1 -98 3 -106 38 -177 61 -124
176 -208 321 -235 79 -15 1118 -15 1146 -1 18 10 19 27 19 510 0 483 -1 500
-19 510 -20 10 -56 11 -98 3z"/>
<path d="M883 1646 c-132 -32 -242 -119 -297 -235 -29 -61 -31 -74 -31 -171 1
-133 23 -195 100 -279 64 -69 149 -116 242 -136 84 -18 822 -22 854 -5 15 8
19 22 19 61 0 61 -11 84 -50 104 -24 13 -90 15 -412 15 -381 0 -383 0 -434 24
-180 84 -180 343 1 427 37 17 71 19 433 19 446 0 430 3 509 -83 62 -68 73
-116 73 -329 0 -109 4 -187 11 -200 22 -40 125 -63 163 -35 16 12 17 32 14
247 -3 216 -6 240 -27 292 -52 132 -164 237 -298 278 -61 19 -91 20 -442 19
-264 0 -391 -4 -428 -13z"/>
<path d="M2801 1647 c-49 -29 -50 -36 -51 -434 0 -417 -2 -403 71 -403 46 0
94 22 109 49 6 12 10 134 10 321 0 166 4 300 9 298 4 -1 253 -151 553 -331
503 -303 548 -328 600 -334 74 -7 125 3 154 32 l24 24 0 384 c0 284 -3 386
-12 395 -30 30 -145 5 -168 -37 -6 -12 -10 -132 -10 -315 0 -208 -3 -296 -11
-296 -6 0 -23 8 -37 18 -15 10 -259 158 -542 328 l-515 309 -80 3 c-54 1 -88
-2 -104 -11z"/>
<path d="M5260 1644 c-94 -25 -155 -61 -218 -129 -83 -89 -106 -149 -107 -280
0 -93 3 -105 34 -172 58 -124 168 -209 310 -239 82 -17 820 -21 852 -4 30 17
27 110 -5 147 l-24 28 -409 5 c-320 4 -413 8 -433 19 -58 32 -94 67 -116 115
-57 122 -10 256 110 312 51 24 52 24 441 24 l390 0 50 -29 c28 -16 63 -46 78
-68 50 -72 57 -110 57 -304 0 -112 4 -187 11 -203 21 -45 112 -71 160 -46 18
10 19 23 19 228 0 152 -4 232 -14 269 -43 161 -168 286 -331 329 -75 20 -778
18 -855 -2z"/>
<path d="M7172 1635 l-32 -27 0 -388 c0 -440 -5 -416 81 -408 38 4 58 12 77
32 l27 26 5 305 5 305 35 -23 c19 -13 266 -162 549 -332 l513 -308 72 -5 c78
-5 126 11 146 47 15 30 14 773 -2 789 -15 15 -89 15 -123 0 -52 -24 -55 -42
-55 -358 0 -159 -3 -290 -7 -290 -4 0 -252 147 -552 328 l-544 327 -81 3 c-77
4 -84 2 -114 -23z"/>
<path d="M11591 1646 c-49 -27 -50 -35 -51 -433 0 -413 -2 -403 66 -403 45 0
100 23 113 48 16 30 15 774 -1 790 -16 16 -97 15 -127 -2z"/>
</g>
</svg>
